<svg xmlns="http://www.w3.org/2000/svg" width="782.177" height="562.954" viewBox="0 0 782.177 562.954"><path d="M187.4,505.934c1.122-1.661,2.224-3.366,3.277-5.068l-1.7-1.053c-1.039,1.681-2.127,3.363-3.233,5Z" transform="translate(438.541 -100.387)" fill="#3f3d56"/><path d="M434.2,490.147c1.855-3.641,3.579-7.4,5.124-11.178l-1.851-.758c-1.525,3.726-3.226,7.437-5.056,11.028Zm9.3-22.743c1.227-3.894,2.306-7.888,3.207-11.871l-1.951-.441c-.888,3.93-1.952,7.87-3.163,11.71Zm5.418-23.966c.567-4.036.973-8.152,1.208-12.234l-2-.115c-.231,4.028-.633,8.089-1.192,12.071Zm-.583-24.48,2-.047c-.1-4.088-.362-8.215-.789-12.266l-1.989.21C447.985,410.853,448.247,414.924,448.342,418.958Zm-2.547-24.1,1.965-.373c-.762-4.011-1.7-8.039-2.791-11.972l-1.928.534c1.076,3.88,2,7.854,2.754,11.811Zm-6.478-23.353,1.876-.692c-1.414-3.831-3.007-7.651-4.735-11.354l-1.812.846c1.705,3.653,3.277,7.422,4.672,11.2Zm-273.9-6.182c1.563-3.708,3.3-7.4,5.171-10.971l-1.772-.927c-1.894,3.621-3.657,7.362-5.242,11.12Zm263.651-15.794,1.736-.992c-2.025-3.543-4.225-7.047-6.538-10.417l-1.648,1.132C424.9,342.576,427.066,346.034,429.064,349.529Zm-252.42-5.684c2.154-3.4,4.477-6.757,6.9-9.973l-1.6-1.205c-2.46,3.259-4.814,6.66-7,10.108Zm238.7-14.3,1.551-1.264c-2.58-3.166-5.322-6.262-8.152-9.205l-1.441,1.386C410.09,323.361,412.8,326.417,415.341,329.541ZM191.246,324.5c2.683-3.007,5.522-5.938,8.441-8.714l-1.378-1.449c-2.958,2.813-5.836,5.784-8.555,8.831ZM398.54,312.064l1.323-1.5c-3.06-2.7-6.271-5.309-9.542-7.751l-1.2,1.6C392.353,306.826,395.521,309.4,398.54,312.064Zm-189.728-4.273c3.137-2.528,6.418-4.958,9.75-7.219l-1.123-1.655c-3.378,2.293-6.7,4.754-9.882,7.317Zm170.3-10.223,1.061-1.7c-3.463-2.166-7.056-4.212-10.679-6.083l-.917,1.777C372.156,293.413,375.7,295.432,379.117,297.568Zm-150.244-3.391c3.514-1.983,7.148-3.841,10.8-5.522l-.836-1.817c-3.7,1.7-7.389,3.588-10.95,5.6Zm128.715-7.72.768-1.847c-3.769-1.565-7.648-2.992-11.531-4.239l-.611,1.9C350.044,283.507,353.871,284.914,357.589,286.458ZM250.9,284.045c3.785-1.374,7.677-2.606,11.566-3.663l-.524-1.93c-3.942,1.07-7.887,2.319-11.725,3.712Zm83.624-4.995.451-1.948c-3.972-.921-8.036-1.687-12.08-2.278l-.289,1.979c3.989.583,8,1.339,11.917,2.247ZM274.3,277.692c3.953-.729,7.994-1.3,12.009-1.7l-.2-1.99c-4.07.407-8.166.988-12.172,1.727Zm36.248-2.146.126-2c-4.068-.257-8.215-.348-12.291-.274l.036,2C302.44,275.2,306.529,275.293,310.544,275.546Z" transform="translate(201.041 -100.387)" fill="#eee"/><path d="M454.716,382.532c.536-1.9,1.118-3.822,1.73-5.7l-1.9-.62c-.621,1.906-1.211,3.851-1.754,5.78Z" transform="translate(-94.285 -100.387)" fill="#3f3d56"/><path d="M440.431,270.531h2c0-2-.035-4.032-.105-6.035l-2,.069C440.4,266.546,440.431,268.553,440.431,270.531Z" transform="translate(-67.804 -100.387)" fill="#eee"/><path d="M766.365,252.539l1.989-.212c-.429-4.028-1.008-8.088-1.723-12.069l-1.969.354C765.369,244.545,765.942,248.559,766.365,252.539Zm-4.258-23.7,1.938-.494c-1-3.925-2.158-7.861-3.438-11.7l-1.9.633C759.975,221.071,761.118,224.959,762.108,228.838Zm-318.963-21.1c1.5-3.711,3.145-7.415,4.9-11.005l-1.8-.879c-1.778,3.634-3.447,7.381-4.961,11.137Zm311.337-1.753,1.847-.769c-1.555-3.737-3.268-7.468-5.091-11.089l-1.786.9C751.253,198.6,752.945,202.291,754.482,205.984ZM453.729,186.106c2.011-3.456,4.173-6.885,6.428-10.192l-1.652-1.127c-2.282,3.346-4.47,6.816-6.5,10.313Zm289.918-1.647,1.717-1.025c-2.073-3.473-4.3-6.919-6.624-10.243l-1.64,1.146c2.3,3.285,4.5,6.69,6.546,10.123ZM467.3,166.207c2.487-3.139,5.116-6.226,7.814-9.174l-1.475-1.351c-2.73,2.983-5.392,6.106-7.908,9.282Zm262.551-1.5,1.554-1.26c-2.551-3.146-5.247-6.239-8.013-9.192l-1.46,1.367C724.662,158.543,727.327,161.6,729.848,164.709ZM483.56,148.439c2.907-2.753,5.948-5.435,9.04-7.971l-1.268-1.546c-3.129,2.566-6.206,5.28-9.147,8.065Zm229.823-1.312,1.359-1.468c-2.97-2.75-6.077-5.428-9.235-7.959l-1.251,1.561c3.122,2.5,6.192,5.149,9.127,7.867Zm-211.2-13.966c3.268-2.312,6.659-4.533,10.082-6.6l-1.035-1.711c-3.463,2.095-6.9,4.343-10.2,6.682Zm192.409-1.1,1.137-1.646c-3.33-2.3-6.785-4.506-10.271-6.562l-1.016,1.723c3.445,2.032,6.86,4.213,10.15,6.485ZM522.8,120.694c3.565-1.821,7.24-3.534,10.924-5.092l-.779-1.842c-3.728,1.576-7.446,3.31-11.055,5.153Zm151.06-.853.89-1.791c-3.623-1.8-7.357-3.489-11.1-5.022l-.759,1.851c3.7,1.516,7.389,3.185,10.969,4.963ZM544.983,111.31c3.783-1.288,7.667-2.455,11.543-3.468l-.506-1.935c-3.923,1.025-7.854,2.206-11.682,3.509Zm106.609-.592.623-1.9c-3.844-1.26-7.785-2.4-11.715-3.377l-.484,1.94c3.884.969,7.779,2.092,11.577,3.337Zm-83.306-5.5c3.933-.73,7.942-1.326,11.918-1.772l-.223-1.987c-4.023.452-8.081,1.055-12.061,1.793Zm59.942-.329.343-1.971c-3.984-.694-8.047-1.252-12.078-1.66l-.2,1.99c3.982.4,8,.954,11.936,1.64Zm-36.009-2.36c4-.163,8.076-.184,12.051-.065l.061-2c-4.022-.12-8.141-.1-12.193.066Z" transform="translate(-394.691 -100.387)" fill="#eee"/><path d="M772.559,224.9c.535-1.9,1.113-3.825,1.717-5.712l-1.9-.609c-.611,1.909-1.2,3.854-1.738,5.779Z" transform="translate(-729.955 -100.387)" fill="#3f3d56"/><ellipse cx="33.312" cy="2.498" rx="33.312" ry="2.498" transform="translate(593.794 425.373)" fill="#ff7043"/><ellipse cx="33.312" cy="2.498" rx="33.312" ry="2.498" transform="translate(328.127 304.615)" fill="#ff7043"/><ellipse cx="33.312" cy="2.498" rx="33.312" ry="2.498" transform="translate(0 178.861)" fill="#ff7043"/><rect width="141.663" height="2" transform="translate(145.265 274.74) rotate(-135)" fill="#eee"/><rect width="168.228" height="2" transform="translate(175.723 286.126)" fill="#eee"/><rect width="133.065" height="2" transform="translate(467.33 395.266) rotate(-135)" fill="#eee"/><rect width="112.43" height="2" transform="translate(497.188 406.884)" fill="#eee"/><rect width="158" height="2" transform="translate(750.486 532.682) rotate(-135)" fill="#eee"/><path d="M187.846,526.76a18.489,18.489,0,1,0-18.489-18.489A18.489,18.489,0,0,0,187.846,526.76Zm0-34.979a16.489,16.489,0,1,1-16.489,16.489,16.489,16.489,0,0,1,16.489-16.489Z" transform="translate(439.261 -100.387)" fill="#eee"/><path d="M335.254,526.76a18.489,18.489,0,1,0-18.489-18.489,18.489,18.489,0,0,0,18.489,18.489Zm0-34.979a16.489,16.489,0,1,1-16.489,16.489A16.489,16.489,0,0,1,335.254,491.782Z" transform="translate(144.445 -100.387)" fill="#eee"/><path d="M453.514,406a18.489,18.489,0,1,0-18.489-18.489A18.489,18.489,0,0,0,453.514,406Zm0-34.978a16.489,16.489,0,1,1-16.489,16.489,16.489,16.489,0,0,1,16.489-16.489Z" transform="translate(-92.074 -100.387)" fill="#eee"/><path d="M656.72,406a18.489,18.489,0,1,0-18.489-18.489A18.489,18.489,0,0,0,656.72,406Zm0-34.978a16.489,16.489,0,1,1-16.489,16.489,16.489,16.489,0,0,1,16.489-16.489Z" transform="translate(-498.485 -100.387)" fill="#eee"/><path d="M781.641,280.248a18.489,18.489,0,1,0-18.489-18.489,18.489,18.489,0,0,0,18.489,18.489Zm0-34.978a16.489,16.489,0,1,1-16.489,16.489,16.489,16.489,0,0,1,16.489-16.489Z" transform="translate(-748.329 -100.387)" fill="#eee"/><path d="M51.265,663.341a18.489,18.489,0,1,0-18.489-18.489,18.489,18.489,0,0,0,18.489,18.489Zm0-34.979a16.489,16.489,0,1,1-16.489,16.489A16.489,16.489,0,0,1,51.265,628.363Z" transform="translate(712.423 -100.387)" fill="#eee"/><path d="M187.847,399.173a33.312,33.312,0,0,1,33.312,33.312c0,18.4-33.312,79.117-33.312,79.117s-33.312-60.719-33.312-79.117A33.312,33.312,0,0,1,187.847,399.173Zm0,50.8a17.489,17.489,0,1,0-17.489-17.489A17.489,17.489,0,0,0,187.847,449.974Z" transform="translate(439.26 -100.387)" fill="#ff7043"/><path d="M453.513,274.251a33.312,33.312,0,0,1,33.312,33.312c0,18.4-33.312,79.117-33.312,79.117S420.2,325.961,420.2,307.564a33.312,33.312,0,0,1,33.312-33.312Zm0,50.8a17.489,17.489,0,1,0-17.489-17.489,17.489,17.489,0,0,0,17.489,17.489Z" transform="translate(-92.074 -100.387)" fill="#ff7043"/><path d="M781.641,154.326a33.312,33.312,0,0,1,33.312,33.312c0,18.4-33.312,79.117-33.312,79.117s-33.312-60.719-33.312-79.117a33.312,33.312,0,0,1,33.313-33.312Zm0,50.8a17.489,17.489,0,1,0-17.489-17.489,17.489,17.489,0,0,0,17.489,17.489Z" transform="translate(-748.328 -100.387)" fill="#ff7043"/></svg>